<svg xmlns="http://www.w3.org/2000/svg" width="1600" height="900" viewBox="0 0 1600 900" fill="none">
  <g transform="translate(350 120)">
    <path d="M170 95C186 46 234 15 287 15C343 15 377 47 400 47C424 47 441 15 493 15C549 15 597 46 613 95C628 141 610 193 575 224C541 255 498 266 449 266H334C285 266 242 255 208 224C173 193 155 141 170 95Z" fill="#1F2937"/>
    <path d="M188 229C238 236 292 238 349 239C406 240 470 239 526 232C511 247 494 260 475 271C450 285 424 294 395 298C356 303 315 299 277 291C239 283 203 270 181 248C181 242 184 235 188 229Z" fill="#1F2937"/>
    <path d="M206 244C248 248 301 250 351 251C403 252 460 251 512 245C504 255 495 263 485 271C467 285 446 296 423 302C391 311 357 313 324 307C292 302 258 291 223 275C217 272 211 266 206 244Z" fill="#F59E0B"/>
    <path d="M282 307C305 295 332 290 360 291C340 313 320 329 299 343C282 353 263 360 248 363C254 348 264 330 282 307Z" fill="#F59E0B"/>
    <path d="M310 323C312 348 306 373 294 398C282 422 266 447 251 467C245 475 235 478 226 473C217 468 215 456 221 448C239 423 253 400 262 379C270 360 274 339 275 321C286 321 296 322 310 323Z" fill="#F59E0B"/>
    <path d="M279 364C270 392 255 420 236 446C222 465 205 487 193 501C186 509 174 512 166 505C158 498 158 486 164 478C184 454 200 432 212 410C223 391 232 370 239 349C251 353 264 358 279 364Z" fill="#F59E0B"/>
    <circle cx="161" cy="507" r="15" fill="#F59E0B"/>
    <circle cx="161" cy="507" r="6" fill="#FFF7ED"/>
    <path d="M279 364C324 372 363 375 402 373C386 392 367 410 347 426C322 446 298 463 274 479C261 488 247 490 237 482C228 474 226 462 232 452C247 428 263 404 279 364Z" fill="#F59E0B"/>
  </g>
  <g transform="translate(325 690)">
    <text x="0" y="0" font-family="Inter, ui-sans-serif, system-ui, -apple-system, BlinkMacSystemFont, 'Segoe UI', sans-serif" font-size="112" font-weight="700" fill="#1F2937" letter-spacing="-2">Quest</text>
    <text x="394" y="0" font-family="Inter, ui-sans-serif, system-ui, -apple-system, BlinkMacSystemFont, 'Segoe UI', sans-serif" font-size="112" font-weight="700" fill="#F59E0B" letter-spacing="-2">Hat</text>
  </g>
</svg>
